HIERARCHY
ROOT Hips
{
	OFFSET 0.000000 100.481300 0.000000
	CHANNELS 6 Xposition Yposition Zposition Xrotation Yrotation Zrotation 
	JOINT Spine
	{
		OFFSET -0.279200 12.230698 -2.892100
		CHANNELS 3 Xrotation Yrotation Zrotation
		JOINT Spine1
		{
			OFFSET -0.232667 10.192268 -1.242267
			CHANNELS 3 Xrotation Yrotation Zrotation
			JOINT Spine1_split
			{
				OFFSET -0.232667 10.192268 -1.242267
				CHANNELS 3 Xrotation Yrotation Zrotation
				JOINT Spine2
				{
					OFFSET -0.232667 10.192268 -1.242267
					CHANNELS 3 Xrotation Yrotation Zrotation
					JOINT Neck
					{
						OFFSET -0.418800 17.814194 8.416900
						CHANNELS 3 Xrotation Yrotation Zrotation
						JOINT Head
						{
							OFFSET 0.000000 7.031097 3.806800
							CHANNELS 3 Xrotation Yrotation Zrotation
							JOINT HeadTop_End
							{
								OFFSET 0.000000 24.646606 12.978600
								CHANNELS 3 Xrotation Yrotation Zrotation
								End Site
								{
									OFFSET 0.000000 0.000000 0.000000
								}
							}
						}
					}
					JOINT LeftShoulder
					{
						OFFSET 8.476499 7.247704 -3.868750
						CHANNELS 3 Xrotation Yrotation Zrotation
						JOINT LeftShoulder_split
						{
							OFFSET 8.476499 7.247704 -3.868750
							CHANNELS 3 Xrotation Yrotation Zrotation
							JOINT LeftArm
							{
								OFFSET 9.308998 -2.777710 0.208600
								CHANNELS 3 Xrotation Yrotation Zrotation
								JOINT LeftForeArm
								{
									OFFSET 29.972298 0.000000 0.000000
									CHANNELS 3 Xrotation Yrotation Zrotation
									JOINT LeftHand
									{
										OFFSET 26.026505 0.000000 0.000000
										CHANNELS 3 Xrotation Yrotation Zrotation
										JOINT LeftHandThumb1
										{
											OFFSET 12.240501 -7.147949 9.207150
											CHANNELS 3 Xrotation Yrotation Zrotation
											JOINT LeftHandThumb2
											{
												OFFSET 4.138618 -2.389435 2.389433
												CHANNELS 3 Xrotation Yrotation Zrotation
												JOINT LeftHandThumb3
												{
													OFFSET 2.726913 -1.574387 1.574386
													CHANNELS 3 Xrotation Yrotation Zrotation
													JOINT LeftHandThumb4
													{
														OFFSET 3.941010 -2.275345 2.275342
														CHANNELS 3 Xrotation Yrotation Zrotation
														End Site
														{
															OFFSET 0.000000 0.000000 0.000000
														}
													}
												}
											}
										}
										JOINT LeftHandIndex1
										{
											OFFSET 24.424698 -1.985611 5.953459
											CHANNELS 3 Xrotation Yrotation Zrotation
											JOINT LeftHandIndex2
											{
												OFFSET 6.426697 0.000000 0.000000
												CHANNELS 3 Xrotation Yrotation Zrotation
												JOINT LeftHandIndex3
												{
													OFFSET 5.337898 0.000000 0.000000
													CHANNELS 3 Xrotation Yrotation Zrotation
													JOINT LeftHandIndex4
													{
														OFFSET 4.409401 0.000000 0.000000
														CHANNELS 3 Xrotation Yrotation Zrotation
														End Site
														{
															OFFSET 0.000000 0.000000 0.000000
														}
													}
												}
											}
										}
										JOINT LeftHandMiddle1
										{
											OFFSET 23.810104 0.000000 0.000000
											CHANNELS 3 Xrotation Yrotation Zrotation
											JOINT LeftHandMiddle2
											{
												OFFSET 7.176498 0.000000 0.000000
												CHANNELS 3 Xrotation Yrotation Zrotation
												JOINT LeftHandMiddle3
												{
													OFFSET 6.774902 0.000000 0.000000
													CHANNELS 3 Xrotation Yrotation Zrotation
													JOINT LeftHandMiddle4
													{
														OFFSET 5.403328 0.000000 0.000000
														CHANNELS 3 Xrotation Yrotation Zrotation
														End Site
														{
															OFFSET 0.000000 0.000000 0.000000
														}
													}
												}
											}
										}
										JOINT LeftHandRing1
										{
											OFFSET 22.908401 -0.839279 -6.020567
											CHANNELS 3 Xrotation Yrotation Zrotation
											JOINT LeftHandRing2
											{
												OFFSET 6.337502 0.000000 0.000000
												CHANNELS 3 Xrotation Yrotation Zrotation
												JOINT LeftHandRing3
												{
													OFFSET 5.779297 0.000000 0.000000
													CHANNELS 3 Xrotation Yrotation Zrotation
													JOINT LeftHandRing4
													{
														OFFSET 4.965698 0.000000 0.000000
														CHANNELS 3 Xrotation Yrotation Zrotation
														End Site
														{
															OFFSET 0.000000 0.000000 0.000000
														}
													}
												}
											}
										}
										JOINT LeftHandPinky1
										{
											OFFSET 20.037003 -1.530319 -10.950146
											CHANNELS 3 Xrotation Yrotation Zrotation
											JOINT LeftHandPinky2
											{
												OFFSET 5.254700 0.000000 0.000000
												CHANNELS 3 Xrotation Yrotation Zrotation
												JOINT LeftHandPinky3
												{
													OFFSET 4.810204 0.000000 0.000000
													CHANNELS 3 Xrotation Yrotation Zrotation
													JOINT LeftHandPinky4
													{
														OFFSET 3.647202 0.000000 0.000000
														CHANNELS 3 Xrotation Yrotation Zrotation
														End Site
														{
															OFFSET 0.000000 0.000000 0.000000
														}
													}
												}
											}
										}
									}
								}
							}
						}
					}
					JOINT RightShoulder
					{
						OFFSET -7.570500 7.247704 -3.868750
						CHANNELS 3 Xrotation Yrotation Zrotation
						JOINT RightShoulder_split
						{
							OFFSET -7.570500 7.247704 -3.868750
							CHANNELS 3 Xrotation Yrotation Zrotation
							JOINT RightArm
							{
								OFFSET -9.308998 -2.777710 0.208500
								CHANNELS 3 Xrotation Yrotation Zrotation
								JOINT RightForeArm
								{
									OFFSET -29.972300 0.000000 0.000000
									CHANNELS 3 Xrotation Yrotation Zrotation
									JOINT RightHand
									{
										OFFSET -26.026505 0.000000 0.000000
										CHANNELS 3 Xrotation Yrotation Zrotation
										JOINT RightHandThumb1
										{
											OFFSET -12.240601 -7.148026 9.207092
											CHANNELS 3 Xrotation Yrotation Zrotation
											JOINT RightHandThumb2
											{
												OFFSET -4.138618 -2.389435 2.389433
												CHANNELS 3 Xrotation Yrotation Zrotation
												JOINT RightHandThumb3
												{
													OFFSET -2.726974 -1.574417 1.574421
													CHANNELS 3 Xrotation Yrotation Zrotation
													JOINT RightHandThumb4
													{
														OFFSET -3.941010 -2.275345 2.275343
														CHANNELS 3 Xrotation Yrotation Zrotation
														End Site
														{
															OFFSET 0.000000 0.000000 0.000000
														}
													}
												}
											}
										}
										JOINT RightHandIndex1
										{
											OFFSET -24.424698 -1.985657 5.953444
											CHANNELS 3 Xrotation Yrotation Zrotation
											JOINT RightHandIndex2
											{
												OFFSET -6.426697 0.000000 0.000000
												CHANNELS 3 Xrotation Yrotation Zrotation
												JOINT RightHandIndex3
												{
													OFFSET -5.337898 0.000000 0.000000
													CHANNELS 3 Xrotation Yrotation Zrotation
													JOINT RightHandIndex4
													{
														OFFSET -4.409401 0.000000 0.000000
														CHANNELS 3 Xrotation Yrotation Zrotation
														End Site
														{
															OFFSET 0.000000 0.000000 0.000000
														}
													}
												}
											}
										}
										JOINT RightHandMiddle1
										{
											OFFSET -23.810097 0.000000 0.000000
											CHANNELS 3 Xrotation Yrotation Zrotation
											JOINT RightHandMiddle2
											{
												OFFSET -7.176498 0.000000 0.000000
												CHANNELS 3 Xrotation Yrotation Zrotation
												JOINT RightHandMiddle3
												{
													OFFSET -6.774902 0.000000 0.000000
													CHANNELS 3 Xrotation Yrotation Zrotation
													JOINT RightHandMiddle4
													{
														OFFSET -5.403328 0.000000 0.000000
														CHANNELS 3 Xrotation Yrotation Zrotation
														End Site
														{
															OFFSET 0.000000 0.000000 0.000000
														}
													}
												}
											}
										}
										JOINT RightHandRing1
										{
											OFFSET -22.908302 -0.839325 -6.020576
											CHANNELS 3 Xrotation Yrotation Zrotation
											JOINT RightHandRing2
											{
												OFFSET -6.337502 0.000000 0.000000
												CHANNELS 3 Xrotation Yrotation Zrotation
												JOINT RightHandRing3
												{
													OFFSET -5.779297 0.000000 0.000000
													CHANNELS 3 Xrotation Yrotation Zrotation
													JOINT RightHandRing4
													{
														OFFSET -4.965698 0.000000 0.000000
														CHANNELS 3 Xrotation Yrotation Zrotation
														End Site
														{
															OFFSET 0.000000 0.000000 0.000000
														}
													}
												}
											}
										}
										JOINT RightHandPinky1
										{
											OFFSET -20.037003 -1.530334 -10.950259
											CHANNELS 3 Xrotation Yrotation Zrotation
											JOINT RightHandPinky2
											{
												OFFSET -5.254700 0.000000 0.000000
												CHANNELS 3 Xrotation Yrotation Zrotation
												JOINT RightHandPinky3
												{
													OFFSET -4.810204 0.000000 0.000000
													CHANNELS 3 Xrotation Yrotation Zrotation
													JOINT RightHandPinky4
													{
														OFFSET -3.647202 0.000000 0.000000
														CHANNELS 3 Xrotation Yrotation Zrotation
														End Site
														{
															OFFSET 0.000000 0.000000 0.000000
														}
													}
												}
											}
										}
									}
								}
							}
						}
					}
				}
			}
		}
	}
	JOINT LeftUpLeg
	{
		OFFSET 15.427100 -6.655098 0.678600
		CHANNELS 3 Xrotation Yrotation Zrotation
		JOINT LeftLeg
		{
			OFFSET 4.081073 -39.591068 13.024000
			CHANNELS 3 Xrotation Yrotation Zrotation
			JOINT LeftFoot
			{
				OFFSET -4.081074 -37.707932 -15.979700
				CHANNELS 3 Xrotation Yrotation Zrotation
				JOINT LeftToeBase
				{
					OFFSET 5.346399 -15.068900 20.645000
					CHANNELS 3 Xrotation Yrotation Zrotation
					JOINT LeftToe_End
					{
						OFFSET 2.754700 0.931300 11.300900
						CHANNELS 3 Xrotation Yrotation Zrotation
						End Site
						{
							OFFSET 0.000000 0.000000 0.000000
						}
					}
				}
			}
		}
	}
	JOINT RightUpLeg
	{
		OFFSET -15.569500 -6.655098 0.678600
		CHANNELS 3 Xrotation Yrotation Zrotation
		JOINT RightLeg
		{
			OFFSET -4.081825 -39.591045 13.023800
			CHANNELS 3 Xrotation Yrotation Zrotation
			JOINT RightFoot
			{
				OFFSET 4.081824 -37.707954 -15.979600
				CHANNELS 3 Xrotation Yrotation Zrotation
				JOINT RightToeBase
				{
					OFFSET -5.346400 -15.068900 20.645000
					CHANNELS 3 Xrotation Yrotation Zrotation
					JOINT RightToe_End
					{
						OFFSET -2.754700 0.931300 11.300900
						CHANNELS 3 Xrotation Yrotation Zrotation
						End Site
						{
							OFFSET 0.000000 0.000000 0.000000
						}
					}
				}
			}
		}
	}
}
MOTION
Frames: 4
Frame Time: 0.016667
-26.189541 78.698868 -11.720928 36.027800 4.803704 -2.976094 11.189187 1.155915 -0.009658 9.606818 1.909023 0.899771 0.000000 0.000000 0.000000 9.603342 2.011868 0.811203 -0.524626 -2.137136 -0.972091 -33.188234 -13.301682 4.013187 0.000003 -0.000000 -0.000000 1.414455 -22.723534 -8.784366 0.000000 0.000000 0.000000 11.762078 -10.125582 -53.585382 0.000010 -69.152237 -0.000007 9.634476 -7.078036 51.536472 -3.236111 1.418140 8.402896 5.654941 12.269283 1.647805 -0.143290 6.321517 3.004561 -0.000000 0.000001 -0.000003 -2.869259 -11.236249 -14.304758 0.189436 1.607175 -13.444114 0.538638 2.674352 -22.771636 -0.000001 -0.000000 0.000000 -1.015601 -2.322588 -17.138010 0.372016 2.236748 -18.883774 0.349723 2.170515 -18.304142 -0.000004 -0.000002 -0.000001 0.425058 2.386058 -20.199036 0.525208 2.642131 -22.481653 0.427929 2.393826 -20.267661 0.000000 0.000003 -0.000001 2.908279 9.324879 -19.277242 0.542575 -1.387847 -23.214322 0.352145 2.177841 -18.368114 -0.000000 -0.000000 -0.000001 3.076678 26.719379 7.630342 0.000000 0.000000 0.000000 -0.858343 44.777907 17.984943 -0.000001 15.067915 -0.000001 -12.088586 -18.720871 2.445772 11.401667 -6.367860 -1.590879 -8.836333 -28.068825 -6.744441 -1.218072 0.026853 -2.106282 -0.000000 0.000002 0.000001 1.584817 -10.189948 8.836257 0.110142 -1.235145 10.190475 0.104689 -1.204450 9.934536 0.000002 0.000002 -0.000005 0.067143 -0.965878 7.951951 0.067141 -0.965876 7.951943 0.067145 -0.965880 7.951938 -0.000003 0.000000 -0.000001 -0.761381 3.643568 10.438920 0.104639 -1.204184 9.932223 -0.681565 -1.331629 9.841762 0.000001 -0.000000 -0.000000 -2.759436 8.024679 17.655269 0.308094 -2.050678 17.086492 0.288066 -1.984382 16.517489 0.000001 -0.000001 0.000001 -56.023240 -21.450759 30.003071 30.414505 6.527029 -3.959419 3.722018 9.504282 -32.895520 -1.113729 -0.000002 -0.000004 0.000000 0.000001 -0.000000 -61.169323 0.682851 -23.039603 46.443087 -3.036417 0.662634 -15.901095 -5.720638 21.060253 -0.000107 -0.000003 -0.000010 0.000000 0.000000 -0.000000 
-25.671295 77.999413 -11.694397 37.488436 4.635909 -2.967851 11.378632 1.357128 0.083607 9.817428 2.025246 0.983093 0.000000 0.000000 0.000000 9.811146 2.152151 0.886992 -0.715579 -2.246420 -1.135934 -34.116617 -13.747780 3.784626 -0.000000 -0.000000 0.000000 1.416212 -22.973077 -8.880210 0.000000 0.000000 0.000000 11.192772 -9.120334 -53.018770 0.000016 -70.505850 0.000009 10.038161 -7.077228 52.367095 -3.374855 1.231303 8.584176 5.793798 12.624823 1.716463 -0.109063 6.710993 3.041325 0.000002 -0.000001 -0.000001 -2.849405 -11.834711 -13.679910 0.167892 1.514209 -12.652650 0.539127 2.675508 -22.781935 -0.000002 0.000001 0.000001 -1.107504 -2.724907 -16.827240 0.358597 2.197125 -18.536778 0.336369 2.129752 -17.948127 0.000003 0.000001 0.000002 0.422356 2.378715 -20.134021 0.523084 2.637004 -22.435566 0.419808 2.371764 -20.072642 0.000001 0.000000 0.000001 2.892620 9.303075 -19.220782 0.541226 -1.391019 -23.185711 0.338945 2.137688 -18.017363 -0.000000 -0.000001 -0.000002 3.187587 27.214289 7.729330 0.000000 0.000000 0.000000 -2.835466 44.048416 16.782890 0.000007 15.523321 -0.000001 -11.553914 -18.245691 1.205170 11.420379 -6.347019 -1.613744 -8.885685 -28.126237 -6.728609 -1.266711 0.123340 -2.096319 -0.000000 -0.000001 0.000001 1.580424 -10.229621 8.766659 0.108818 -1.227718 10.128400 0.103352 -1.196866 9.871165 -0.000000 0.000001 -0.000003 0.064979 -0.950263 7.822430 0.064965 -0.950256 7.822430 0.064958 -0.950270 7.822436 0.000002 0.000000 0.000000 -0.755248 3.690485 10.276199 0.101177 -1.184315 9.766742 -0.689350 -1.310129 9.676075 0.000001 0.000000 0.000001 -2.755518 8.099331 17.520893 0.303169 -2.034600 16.948027 0.283180 -1.967873 16.376167 0.000001 -0.000000 -0.000001 -59.116230 -20.582678 29.844382 32.283569 6.789211 -3.964560 2.971459 7.981567 -32.553556 -1.399283 -0.000001 0.000003 0.000000 0.000002 0.000000 -63.237887 1.078105 -23.476566 47.256067 -2.617880 0.447226 -16.013619 -5.887780 21.552288 0.000052 0.000000 -0.000001 0.000000 0.000000 -0.000000 
-25.151268 77.333588 -11.606693 39.092342 4.701687 -2.836556 11.467659 1.537165 0.143745 9.969260 2.124028 1.135354 0.000000 0.000000 0.000000 9.956427 2.298933 1.031306 -0.838432 -2.418141 -1.228873 -35.049034 -14.115562 3.169136 0.000000 0.000000 -0.000000 1.450536 -23.720940 -8.828590 0.000000 0.000000 0.000000 11.826648 -9.065749 -52.805613 -0.000023 -71.719896 -0.000029 10.805702 -6.917966 53.874893 -3.512168 1.046283 8.763070 5.931037 12.976930 1.783633 -0.075412 7.096611 3.077525 -0.000000 -0.000002 0.000001 -2.817157 -12.428209 -13.059487 0.147822 1.421862 -11.869168 0.539604 2.676637 -22.792143 0.000002 0.000000 -0.000000 -1.194128 -3.124436 -16.519642 0.345545 2.157838 -18.193249 0.323396 2.089307 -17.595705 0.000004 0.000000 0.000002 0.419689 2.371440 -20.069645 0.520981 2.631934 -22.389949 0.411853 2.349907 -19.879552 0.000002 0.000002 -0.000001 2.877102 9.281348 -19.164884 0.539871 -1.394170 -23.157425 0.326105 2.097862 -17.670113 0.000003 -0.000000 0.000001 3.294679 27.536625 7.886915 0.000000 0.000000 0.000000 -5.270273 43.242894 15.996347 -0.000007 15.853525 -0.000003 -11.364530 -17.432028 -0.170961 11.427823 -6.338762 -1.622794 -8.905249 -28.148955 -6.722363 -1.285946 0.161524 -2.092359 -0.000000 -0.000000 -0.000001 1.578689 -10.245327 8.739125 0.108282 -1.224755 10.103838 0.102829 -1.193862 9.846085 0.000002 0.000003 -0.000004 0.064144 -0.944069 7.771179 0.064126 -0.944073 7.771190 0.064120 -0.944050 7.771183 0.000001 0.000000 0.000002 -0.752773 3.709081 10.211798 0.099846 -1.176478 9.701246 -0.692426 -1.301604 9.610515 0.000000 -0.000001 0.000004 -2.753873 8.128886 17.467707 0.301211 -2.028193 16.893262 0.281274 -1.961357 16.320223 -0.000000 0.000000 -0.000002 -62.358234 -19.689929 29.496377 33.908949 6.823595 -4.136684 2.414374 6.470478 -32.058862 -1.425587 -0.000003 0.000006 -0.000000 0.000001 -0.000000 -65.362349 1.461054 -24.267153 48.061630 -2.141302 0.313550 -16.188020 -6.050960 22.021063 -0.000016 0.000002 -0.000002 0.000000 0.000000 -0.000000 
-24.610756 76.640358 -11.490692 40.717203 4.894372 -2.671157 11.512077 1.665374 0.217715 10.064945 2.170636 1.237804 0.000000 0.000000 0.000000 10.048268 2.372609 1.130297 -0.902488 -2.527069 -1.383377 -35.906571 -14.329185 2.536110 0.000000 0.000000 -0.000001 1.473616 -24.423862 -8.886955 0.000000 0.000000 0.000000 12.773724 -9.396242 -52.694168 0.000006 -72.757477 -0.000011 11.913189 -6.670313 56.008012 -3.647177 0.864208 8.938398 6.065769 13.323439 1.848944 -0.042528 7.475900 3.112938 0.000002 -0.000001 0.000003 -2.773165 -13.012707 -12.447467 0.129292 1.330794 -11.098662 0.540085 2.677760 -22.802184 -0.000001 -0.000001 0.000001 -1.275078 -3.518491 -16.217282 0.332934 2.119121 -17.855373 0.310880 2.049462 -17.249115 0.000002 0.000002 0.000000 0.417081 2.364269 -20.006336 0.518921 2.626930 -22.345082 0.404117 2.328376 -19.689680 0.000001 0.000000 0.000001 2.861843 9.259780 -19.109966 0.538542 -1.397249 -23.129549 0.313728 2.058602 -17.328648 -0.000004 0.000000 -0.000000 3.339814 27.785954 7.894899 0.000000 0.000000 0.000000 -7.494343 42.668998 15.410841 -0.000009 16.135779 0.000008 -11.314869 -17.019382 -1.634186 11.432230 -6.333860 -1.628204 -8.916900 -28.162523 -6.718618 -1.297457 0.184334 -2.089994 -0.000000 -0.000002 -0.000001 1.577611 -10.254719 8.722659 0.107959 -1.223012 10.089148 0.102525 -1.192048 9.831122 -0.000000 0.000000 -0.000001 0.063621 -0.940390 7.740553 0.063618 -0.940367 7.740575 0.063612 -0.940384 7.740565 -0.000001 0.000001 -0.000001 -0.751272 3.720149 10.173322 0.099046 -1.171772 9.662118 -0.694265 -1.296503 9.571363 -0.000000 0.000000 -0.000000 -2.752870 8.146512 17.435934 0.300062 -2.024378 16.860527 0.280132 -1.957453 16.286811 0.000002 -0.000000 -0.000001 -65.720695 -18.580526 29.008466 35.517216 6.859979 -4.201570 1.833017 4.871196 -31.498551 -1.430658 -0.000007 -0.000006 -0.000000 -0.000001 0.000000 -67.494420 1.812659 -25.250750 48.912723 -1.591459 0.204656 -16.416898 -6.222100 22.486103 -0.000069 -0.000004 -0.000002 0.000000 -0.000000 -0.000000 
